<svg width="1940" height="1940" viewBox="0 0 1940 1940" fill="none" xmlns="http://www.w3.org/2000/svg">
<path d="M936.7 1221.54C928.342 1250.35 905.919 1253.49 883.454 1236.23C837.49 1202.88 791.527 1169.54 745.563 1136.2C727.41 1123.14 708.138 1102.56 715.678 1078.36C747.198 981.352 778.719 884.354 810.231 787.349H887.534C853.707 894.081 819.871 1000.8 786.044 1107.54C815.886 1125.96 845.736 1144.38 875.578 1162.8C914.251 1037.65 952.925 912.501 991.598 787.357H1068.91C1024.84 932.091 980.77 1076.83 936.7 1221.56V1221.54Z" fill="#A31F33"/>
<path d="M1274.36 988.005C1261.53 1012.18 1238.65 1030.21 1213.7 1040.74C1176.24 1056.96 1138.76 1073.17 1101.29 1089.38C1081.02 1146.58 1060.75 1203.78 1040.47 1260.98C1029.65 1268.83 1018.83 1276.68 1008.01 1284.52C999.345 1290.81 987.113 1303.98 975.554 1303.04C1027.38 1131.14 1079.2 959.239 1131.02 787.34H1333.55C1354.61 788.304 1377.9 796.275 1362.8 821.254C1333.32 876.832 1303.84 932.419 1274.35 987.997L1274.36 988.005ZM1209.62 999.238C1232.86 946.423 1256.09 893.599 1279.32 840.784C1248.47 843.246 1217.62 845.716 1186.77 848.178C1165.46 908.301 1144.16 968.432 1122.84 1028.55C1151.77 1018.79 1180.69 1009.02 1209.62 999.238Z" fill="#A31F33"/>
<path d="M1692.99 787.349C1571.97 850.708 1462.88 932.479 1363.94 1026.42C1342.39 1042.07 1320.85 1057.73 1299.31 1073.37C1351.91 983.9 1388.29 886.463 1418.13 787.349H1495.77C1468.36 849.822 1437.43 910.427 1400.56 967.881C1394.79 975.103 1389 982.307 1383.19 989.494C1389.9 981.507 1397.01 973.872 1404.09 966.22C1470.11 901.277 1540.33 841.206 1615.7 787.34H1693L1692.99 787.349Z" fill="#A31F33"/>
<path d="M1418.13 787.349L1277.81 1088.99L1692.99 787.349H1607.57L1430.29 913.241L1496.81 787.349H1418.13Z" fill="#A31F33"/>
<path d="M950.935 245.153C956.833 226.543 983.167 226.543 989.065 245.153L1146.21 740.957C1150.3 753.852 1140.67 767 1127.14 767H812.856C799.329 767 789.704 753.852 793.791 740.957L950.935 245.153Z" fill="#A31F33"/>
<path d="M229.11 803.381C213.164 792.119 221.147 767.024 240.669 767.044L760.78 767.588C774.307 767.602 783.919 780.76 779.819 793.651L684.548 1093.15C680.447 1106.04 665 1111.23 653.951 1103.42L229.11 803.381Z" fill="#A31F33"/>
<path d="M532.326 1659.13C516.645 1670.76 495.301 1655.34 501.42 1636.8L664.449 1142.9C668.689 1130.05 684.192 1125.03 695.155 1132.96L949.892 1317.04C960.856 1324.96 960.957 1341.26 950.092 1349.31L532.326 1659.13Z" fill="#A31F33"/>
<path d="M1407.47 1659.13C1423.15 1670.76 1444.49 1655.34 1438.37 1636.8L1275.34 1142.9C1271.1 1130.05 1255.6 1125.03 1244.64 1132.96L989.9 1317.04C978.937 1324.96 978.836 1341.26 989.701 1349.31L1407.47 1659.13Z" fill="#A31F33"/>
</svg>
